<?xml version="1.0" encoding="UTF-8" standalone="no"?>
<!DOCTYPE svg PUBLIC "-//W3C//DTD SVG 1.1//EN" "http://www.w3.org/Graphics/SVG/1.1/DTD/svg11.dtd">
<svg width="100%" height="100%" viewBox="0 0 512 512" version="1.1" xmlns="http://www.w3.org/2000/svg" xmlns:xlink="http://www.w3.org/1999/xlink" xml:space="preserve" xmlns:serif="http://www.serif.com/" style="fill-rule:evenodd;clip-rule:evenodd;stroke-linejoin:round;stroke-miterlimit:2;">
    <g transform="matrix(0.417413,-0.417413,0.417413,0.417413,28.7485,249.855)">
        <path d="M320,336C320,344.84 312.84,352 304,352L208,352C199.16,352 192,344.84 192,336L192,288L0,288L0,432C0,457.6 22.4,480 48,480L464,480C489.6,480 512,457.6 512,432L512,288L320,288L320,336ZM464,128L384,128L384,80C384,54.4 361.6,32 336,32L176,32C150.4,32 128,54.4 128,80L128,128L48,128C22.4,128 0,150.4 0,176L0,256L512,256L512,176C512,150.4 489.6,128 464,128ZM320,128L192,128L192,96L320,96L320,128Z" style="fill:rgb(128,0,128);fill-rule:nonzero;"/>
    </g>
</svg>
